<svg width="65" height="62" viewBox="0 0 65 62" fill="none" xmlns="http://www.w3.org/2000/svg">
<path d="M29.7046 55.1378C35.1445 56.2311 40.8576 55.1875 45.7789 52.2016C50.7003 49.2156 54.494 44.4911 56.4531 38.9087C58.5909 32.8068 58.3705 26.1592 55.8404 20.4284C53.3104 14.6975 48.6778 10.3526 42.9618 8.34962C37.2456 6.34696 30.9144 6.8502 25.3607 9.74863C19.807 12.6471 15.4858 17.7033 13.3476 23.8051C13.1338 24.4145 12.9428 25.0316 12.775 25.655C15.9753 24.8638 19.2852 25.0096 22.3399 26.0765C26.738 27.6176 30.3026 30.9607 32.2493 35.3702C34.1961 39.7798 34.3656 44.8947 32.7206 49.5897C32.0143 51.5928 30.9944 53.4688 29.7046 55.1378Z" fill="#BBBBBB"/>
<path d="M17.3985 60.1014C27.0074 60.1014 34.797 52.2437 34.797 42.5507C34.797 32.8577 27.0074 25 17.3985 25C7.78958 25 0 32.8577 0 42.5507C0 52.2437 7.78958 60.1014 17.3985 60.1014Z" fill="#AAAAAA"/>
<rect x="16" y="28.6559" width="16" height="15" rx="1" transform="rotate(-24.5821 16 28.6559)" fill="#3B31EC" fill-opacity="0.71"/>
<path d="M16.0455 44.4769C16.6621 43.9667 17.5983 44.3515 17.678 45.1478L18.4253 52.6162C18.5004 53.3672 17.7482 53.9276 17.0501 53.6407L10.5199 50.957C9.8218 50.6701 9.68103 49.7428 10.2626 49.2616L16.0455 44.4769Z" fill="#A532CF"/>
<path d="M56.5683 36.6434C56.836 37.3975 56.1534 38.145 55.3781 37.9467L48.1064 36.0869C47.3752 35.8999 47.1068 35.0012 47.6158 34.4438L52.3765 29.2303C52.8855 28.6729 53.8049 28.8588 54.0574 29.5701L56.5683 36.6434Z" fill="#A532CF"/>
</svg>
